<svg xmlns="http://www.w3.org/2000/svg" xmlns:xlink="http://www.w3.org/1999/xlink" width="230" zoomAndPan="magnify" viewBox="0 0 219.75 94.499997" height="80" preserveAspectRatio="xMidYMid meet" version="1.0"><defs><g/><clipPath id="f5bf1ee02c"><path d="M 0.660156 0.171875 L 153.773438 0.171875 L 153.773438 91.292969 L 0.660156 91.292969 Z M 0.660156 0.171875 " clip-rule="nonzero"/></clipPath></defs><g clip-path="url(#f5bf1ee02c)"><path fill="#ffb000" d="M 136.382812 14.398438 C 130.667969 15.648438 125.042969 17.375 119.554688 19.5 C 114.097656 21.699219 108.796875 24.289062 103.644531 27.160156 C 103.105469 27.464844 102.566406 27.773438 102.035156 28.085938 C 98.546875 30.128906 95.144531 32.316406 91.808594 34.609375 C 91.648438 34.714844 91.492188 34.832031 91.332031 34.9375 L 80.214844 26.546875 L 45.273438 0.171875 L 12.035156 24.9375 L 0.683594 33.40625 L 0.683594 91.265625 L 51.042969 91.265625 L 52.195312 89.515625 C 52.742188 88.632812 53.308594 87.761719 53.871094 86.886719 C 55.40625 84.523438 56.996094 82.203125 58.621094 79.886719 C 58.625 79.878906 58.636719 79.867188 58.640625 79.855469 C 58.71875 79.75 58.796875 79.632812 58.875 79.527344 C 62.070312 75.003906 65.449219 70.585938 68.96875 66.285156 C 72.546875 61.910156 76.304688 57.671875 80.210938 53.589844 C 80.230469 53.5625 80.265625 53.527344 80.292969 53.5 C 82.648438 51.0625 85.046875 48.660156 87.523438 46.328125 C 88.847656 45.078125 90.191406 43.851562 91.558594 42.644531 C 91.921875 42.324219 92.28125 42.011719 92.644531 41.695312 C 93.976562 40.546875 95.320312 39.417969 96.683594 38.308594 C 99.738281 35.816406 102.871094 33.429688 106.121094 31.183594 C 106.125 31.179688 106.125 31.171875 106.128906 31.171875 C 110.839844 27.957031 115.738281 24.992188 120.832031 22.382812 C 125.957031 19.851562 131.277344 17.675781 136.761719 15.941406 C 142.277344 14.316406 147.953125 13.175781 153.722656 12.558594 C 147.929688 12.632812 142.125 13.253906 136.382812 14.398438 Z M 80.214844 43.328125 C 78.417969 44.789062 76.652344 46.289062 74.902344 47.804688 C 70.4375 51.6875 66.125 55.746094 61.984375 59.96875 C 58.371094 63.65625 54.859375 67.449219 51.460938 71.363281 C 50.976562 71.929688 50.476562 72.507812 49.988281 73.089844 C 48.09375 75.324219 46.234375 77.589844 44.414062 79.894531 L 12.035156 79.894531 L 12.035156 39.109375 L 45.222656 14.375 L 80.214844 40.796875 L 81.832031 42.019531 C 81.289062 42.453125 80.753906 42.890625 80.214844 43.328125 Z M 80.214844 43.328125 " fill-opacity="1" fill-rule="nonzero"/></g><path fill="#ffb000" d="M 36.835938 34.988281 L 43.550781 34.988281 L 43.550781 41.71875 L 36.835938 41.71875 Z M 36.835938 34.988281 " fill-opacity="1" fill-rule="nonzero"/><path fill="#ffb000" d="M 46.84375 34.988281 L 53.554688 34.988281 L 53.554688 41.71875 L 46.84375 41.71875 Z M 46.84375 34.988281 " fill-opacity="1" fill-rule="nonzero"/><path fill="#ffb000" d="M 36.835938 44.765625 L 43.550781 44.765625 L 43.550781 51.496094 L 36.835938 51.496094 Z M 36.835938 44.765625 " fill-opacity="1" fill-rule="nonzero"/><path fill="#ffb000" d="M 46.84375 44.765625 L 53.554688 44.765625 L 53.554688 51.496094 L 46.84375 51.496094 Z M 46.84375 44.765625 " fill-opacity="1" fill-rule="nonzero"/><g fill="#ffb000" fill-opacity="1"><g transform="translate(97.166874, 70.575793)"><g><path d="M 0.15625 -2.625 C 0.8125 -2.625 1.359375 -2.8125 1.796875 -3.1875 C 2.242188 -3.5625 2.59375 -4.019531 2.84375 -4.5625 C 3.09375 -5.113281 3.410156 -5.90625 3.796875 -6.9375 L 11.1875 -27.234375 L 13.84375 -27.234375 L 21.921875 -6.5625 C 22.128906 -6.050781 22.347656 -5.421875 22.578125 -4.671875 C 22.804688 -3.929688 22.941406 -3.3125 22.984375 -2.8125 C 23.816406 -2.882812 24.550781 -2.921875 25.1875 -2.921875 L 25.1875 0 L 14.984375 0 L 14.984375 -2.5 C 16.203125 -2.5 16.8125 -3.003906 16.8125 -4.015625 C 16.8125 -4.523438 16.671875 -5.132812 16.390625 -5.84375 L 15.625 -7.921875 L 7.390625 -7.78125 L 6.796875 -6 C 6.710938 -5.789062 6.535156 -5.332031 6.265625 -4.625 C 6.003906 -3.914062 5.773438 -3.347656 5.578125 -2.921875 C 6.390625 -2.992188 7.285156 -3.03125 8.265625 -3.03125 L 8.265625 0 L 0.15625 0 Z M 14.6875 -10.625 L 12.9375 -15.359375 C 12.207031 -17.429688 11.726562 -19.164062 11.5 -20.5625 L 11.453125 -20.5625 C 11.046875 -18.738281 10.578125 -17.066406 10.046875 -15.546875 L 8.34375 -10.625 Z M 14.6875 -10.625 "/></g></g></g><g fill="#ffb000" fill-opacity="1"><g transform="translate(130.213379, 70.575793)"><g><path d="M 14.34375 0.609375 C 11.789062 0.609375 9.523438 0.015625 7.546875 -1.171875 C 5.578125 -2.359375 4.046875 -3.984375 2.953125 -6.046875 C 1.867188 -8.109375 1.328125 -10.394531 1.328125 -12.90625 C 1.328125 -15.300781 1.835938 -17.59375 2.859375 -19.78125 C 3.890625 -21.96875 5.398438 -23.742188 7.390625 -25.109375 C 9.390625 -26.472656 11.796875 -27.15625 14.609375 -27.15625 C 15.617188 -27.15625 16.710938 -26.988281 17.890625 -26.65625 C 19.066406 -26.332031 20.144531 -25.878906 21.125 -25.296875 L 21.171875 -25.296875 L 21.015625 -26.890625 L 23.9375 -26.890625 L 23.9375 -18.0625 L 21.46875 -18.0625 C 20.789062 -22.257812 18.664062 -24.382812 15.09375 -24.4375 C 13.40625 -24.4375 11.972656 -23.9375 10.796875 -22.9375 C 9.617188 -21.9375 8.738281 -20.613281 8.15625 -18.96875 C 7.570312 -17.320312 7.28125 -15.550781 7.28125 -13.65625 C 7.28125 -11.476562 7.597656 -9.539062 8.234375 -7.84375 C 8.867188 -6.15625 9.78125 -4.835938 10.96875 -3.890625 C 12.15625 -2.941406 13.582031 -2.46875 15.25 -2.46875 C 16.863281 -2.46875 18.445312 -2.882812 20 -3.71875 C 21.5625 -4.550781 22.875 -5.6875 23.9375 -7.125 L 25.765625 -5.46875 C 24.085938 -3.164062 22.25 -1.578125 20.25 -0.703125 C 18.257812 0.171875 16.289062 0.609375 14.34375 0.609375 Z M 14.34375 0.609375 "/></g></g></g><g fill="#ffb000" fill-opacity="1"><g transform="translate(164.018695, 70.575793)"><g><path d="M 1.890625 -2.5 C 2.578125 -2.53125 3.097656 -2.613281 3.453125 -2.75 C 3.804688 -2.882812 4.082031 -3.179688 4.28125 -3.640625 C 4.488281 -4.097656 4.59375 -4.816406 4.59375 -5.796875 L 4.59375 -20.328125 C 4.59375 -21.742188 4.640625 -22.882812 4.734375 -23.75 L 1.890625 -23.640625 L 1.890625 -26.5625 L 20.859375 -26.5625 L 21.09375 -19.203125 L 18.59375 -19.203125 C 18.59375 -21.066406 18.140625 -22.359375 17.234375 -23.078125 C 16.335938 -23.804688 15.257812 -24.144531 14 -24.09375 L 12.640625 -24.046875 C 12.023438 -24.023438 11.539062 -23.941406 11.1875 -23.796875 C 10.832031 -23.660156 10.5625 -23.351562 10.375 -22.875 C 10.1875 -22.394531 10.09375 -21.6875 10.09375 -20.75 L 10.09375 -14.15625 L 14 -14.15625 C 13.976562 -14.476562 13.925781 -15.5625 13.84375 -17.40625 L 16.765625 -17.40625 L 16.765625 -8.1875 L 14.265625 -8.1875 C 14.265625 -9.207031 14.101562 -9.960938 13.78125 -10.453125 C 13.46875 -10.941406 13.050781 -11.25 12.53125 -11.375 C 12.019531 -11.507812 11.359375 -11.5625 10.546875 -11.53125 L 10.09375 -11.53125 L 10.09375 -6.21875 C 10.09375 -4.800781 10.039062 -3.664062 9.9375 -2.8125 C 10.75 -2.882812 11.875 -2.921875 13.3125 -2.921875 L 13.3125 0 L 1.890625 0 Z M 1.890625 -2.5 "/></g></g></g><g fill="#ffffff" fill-opacity="1"><g transform="translate(63.916614, 88.141197)"><g><path d="M -0.046875 -0.296875 C 0.0976562 -0.296875 0.210938 -0.328125 0.296875 -0.390625 C 0.390625 -0.460938 0.460938 -0.550781 0.515625 -0.65625 C 0.578125 -0.769531 0.644531 -0.9375 0.71875 -1.15625 L 0.8125 -1.40625 L 2.640625 -6.375 L 2.84375 -6.375 L 4.828125 -1.328125 C 4.890625 -1.171875 4.941406 -1 4.984375 -0.8125 C 5.035156 -0.625 5.0625 -0.472656 5.0625 -0.359375 L 5.65625 -0.390625 L 5.65625 0 L 3.625 0 L 3.625 -0.296875 C 3.976562 -0.296875 4.15625 -0.4375 4.15625 -0.71875 C 4.15625 -0.832031 4.125 -0.972656 4.0625 -1.140625 L 3.75 -1.96875 L 1.453125 -1.921875 C 1.359375 -1.671875 1.253906 -1.351562 1.140625 -0.96875 C 1.078125 -0.769531 1.003906 -0.566406 0.921875 -0.359375 L 1.609375 -0.390625 L 1.609375 0 L -0.046875 0 Z M 3.625 -2.296875 L 3 -4 L 2.59375 -5.078125 L 2.578125 -5.078125 L 2.203125 -4.078125 L 1.734375 -2.734375 L 1.578125 -2.296875 Z M 3.625 -2.296875 "/></g></g></g><g fill="#ffffff" fill-opacity="1"><g transform="translate(72.192132, 88.141197)"><g><path d="M 0.484375 -0.296875 C 0.691406 -0.296875 0.835938 -0.335938 0.921875 -0.421875 C 1.015625 -0.515625 1.066406 -0.625 1.078125 -0.75 C 1.085938 -0.875 1.09375 -1.085938 1.09375 -1.390625 L 1.09375 -5.21875 C 1.09375 -5.46875 1.101562 -5.679688 1.125 -5.859375 L 0.484375 -5.828125 L 0.484375 -6.21875 L 2.484375 -6.21875 L 2.484375 -5.921875 C 2.273438 -5.910156 2.125 -5.859375 2.03125 -5.765625 C 1.945312 -5.679688 1.898438 -5.578125 1.890625 -5.453125 C 1.878906 -5.335938 1.875 -5.128906 1.875 -4.828125 L 1.875 -1.015625 C 1.875 -0.710938 1.863281 -0.484375 1.84375 -0.328125 L 3.5 -0.359375 C 3.882812 -0.359375 4.171875 -0.472656 4.359375 -0.703125 C 4.546875 -0.941406 4.640625 -1.320312 4.640625 -1.84375 L 4.9375 -1.84375 L 4.890625 0 L 0.484375 0 Z M 0.484375 -0.296875 "/></g></g></g><g fill="#ffffff" fill-opacity="1"><g transform="translate(80.0419, 88.141197)"><g><path d="M 0.484375 -0.296875 C 0.691406 -0.296875 0.835938 -0.335938 0.921875 -0.421875 C 1.015625 -0.515625 1.066406 -0.625 1.078125 -0.75 C 1.085938 -0.875 1.09375 -1.085938 1.09375 -1.390625 L 1.09375 -5.21875 C 1.09375 -5.46875 1.101562 -5.679688 1.125 -5.859375 L 0.484375 -5.828125 L 0.484375 -6.21875 L 2.484375 -6.21875 L 2.484375 -5.921875 C 2.273438 -5.910156 2.125 -5.859375 2.03125 -5.765625 C 1.945312 -5.679688 1.898438 -5.578125 1.890625 -5.453125 C 1.878906 -5.335938 1.875 -5.128906 1.875 -4.828125 L 1.875 -1.015625 C 1.875 -0.710938 1.863281 -0.484375 1.84375 -0.328125 L 3.5 -0.359375 C 3.882812 -0.359375 4.171875 -0.472656 4.359375 -0.703125 C 4.546875 -0.941406 4.640625 -1.320312 4.640625 -1.84375 L 4.9375 -1.84375 L 4.890625 0 L 0.484375 0 Z M 0.484375 -0.296875 "/></g></g></g><g fill="#ffffff" fill-opacity="1"><g transform="translate(87.891669, 88.141197)"><g/></g></g><g fill="#ffffff" fill-opacity="1"><g transform="translate(92.947442, 88.141197)"><g><path d="M 3.421875 0.140625 C 2.847656 0.140625 2.332031 0.00390625 1.875 -0.265625 C 1.414062 -0.546875 1.054688 -0.925781 0.796875 -1.40625 C 0.535156 -1.882812 0.40625 -2.421875 0.40625 -3.015625 C 0.40625 -3.585938 0.519531 -4.128906 0.75 -4.640625 C 0.988281 -5.148438 1.335938 -5.5625 1.796875 -5.875 C 2.265625 -6.195312 2.828125 -6.359375 3.484375 -6.359375 C 4.140625 -6.359375 4.738281 -6.175781 5.28125 -5.8125 L 5.234375 -6.296875 L 5.71875 -6.296875 L 5.71875 -4.234375 L 5.390625 -4.234375 C 5.335938 -4.785156 5.144531 -5.210938 4.8125 -5.515625 C 4.488281 -5.828125 4.066406 -5.984375 3.546875 -5.984375 C 3.128906 -5.984375 2.742188 -5.867188 2.390625 -5.640625 C 2.046875 -5.410156 1.773438 -5.078125 1.578125 -4.640625 C 1.378906 -4.210938 1.28125 -3.710938 1.28125 -3.140625 C 1.28125 -2.597656 1.382812 -2.109375 1.59375 -1.671875 C 1.8125 -1.242188 2.097656 -0.910156 2.453125 -0.671875 C 2.816406 -0.429688 3.21875 -0.3125 3.65625 -0.3125 C 4.050781 -0.3125 4.429688 -0.398438 4.796875 -0.578125 C 5.160156 -0.765625 5.460938 -1.019531 5.703125 -1.34375 L 5.9375 -1.15625 C 5.59375 -0.675781 5.195312 -0.335938 4.75 -0.140625 C 4.3125 0.046875 3.867188 0.140625 3.421875 0.140625 Z M 3.421875 0.140625 "/></g></g></g><g fill="#ffffff" fill-opacity="1"><g transform="translate(101.870457, 88.141197)"><g><path d="M 0.484375 -0.296875 C 0.691406 -0.296875 0.835938 -0.335938 0.921875 -0.421875 C 1.015625 -0.515625 1.066406 -0.625 1.078125 -0.75 C 1.085938 -0.875 1.09375 -1.085938 1.09375 -1.390625 L 1.09375 -5.21875 C 1.09375 -5.46875 1.101562 -5.679688 1.125 -5.859375 L 0.484375 -5.828125 L 0.484375 -6.21875 C 1.097656 -6.226562 1.5625 -6.234375 1.875 -6.234375 C 2.164062 -6.234375 2.378906 -6.226562 2.515625 -6.21875 C 3.347656 -6.207031 3.957031 -6.066406 4.34375 -5.796875 C 4.738281 -5.523438 4.9375 -5.132812 4.9375 -4.625 C 4.9375 -4.21875 4.8125 -3.851562 4.5625 -3.53125 C 4.320312 -3.207031 3.894531 -2.984375 3.28125 -2.859375 C 3.375 -2.785156 3.460938 -2.691406 3.546875 -2.578125 C 3.628906 -2.472656 3.742188 -2.304688 3.890625 -2.078125 L 4.484375 -1.140625 C 4.617188 -0.929688 4.726562 -0.769531 4.8125 -0.65625 C 4.894531 -0.550781 5 -0.460938 5.125 -0.390625 C 5.25 -0.328125 5.398438 -0.296875 5.578125 -0.296875 L 5.578125 0 L 4.453125 0 C 4.296875 -0.132812 4.160156 -0.273438 4.046875 -0.421875 C 3.941406 -0.566406 3.816406 -0.753906 3.671875 -0.984375 L 3.078125 -1.9375 L 2.953125 -2.125 C 2.859375 -2.28125 2.773438 -2.40625 2.703125 -2.5 C 2.628906 -2.601562 2.550781 -2.695312 2.46875 -2.78125 C 2.414062 -2.769531 2.335938 -2.765625 2.234375 -2.765625 C 2.066406 -2.765625 1.945312 -2.769531 1.875 -2.78125 L 1.875 -1.0625 C 1.875 -0.738281 1.863281 -0.503906 1.84375 -0.359375 L 2.484375 -0.390625 L 2.484375 0 L 0.484375 0 Z M 2.265625 -3.109375 C 3.472656 -3.109375 4.078125 -3.582031 4.078125 -4.53125 C 4.078125 -4.976562 3.945312 -5.316406 3.6875 -5.546875 C 3.425781 -5.773438 3.023438 -5.890625 2.484375 -5.890625 C 2.273438 -5.890625 2.125 -5.847656 2.03125 -5.765625 C 1.945312 -5.679688 1.898438 -5.578125 1.890625 -5.453125 C 1.878906 -5.335938 1.875 -5.128906 1.875 -4.828125 L 1.875 -3.125 C 2.050781 -3.113281 2.179688 -3.109375 2.265625 -3.109375 Z M 2.265625 -3.109375 "/></g></g></g><g fill="#ffffff" fill-opacity="1"><g transform="translate(110.163715, 88.141197)"><g><path d="M -0.046875 -0.296875 C 0.0976562 -0.296875 0.210938 -0.328125 0.296875 -0.390625 C 0.390625 -0.460938 0.460938 -0.550781 0.515625 -0.65625 C 0.578125 -0.769531 0.644531 -0.9375 0.71875 -1.15625 L 0.8125 -1.40625 L 2.640625 -6.375 L 2.84375 -6.375 L 4.828125 -1.328125 C 4.890625 -1.171875 4.941406 -1 4.984375 -0.8125 C 5.035156 -0.625 5.0625 -0.472656 5.0625 -0.359375 L 5.65625 -0.390625 L 5.65625 0 L 3.625 0 L 3.625 -0.296875 C 3.976562 -0.296875 4.15625 -0.4375 4.15625 -0.71875 C 4.15625 -0.832031 4.125 -0.972656 4.0625 -1.140625 L 3.75 -1.96875 L 1.453125 -1.921875 C 1.359375 -1.671875 1.253906 -1.351562 1.140625 -0.96875 C 1.078125 -0.769531 1.003906 -0.566406 0.921875 -0.359375 L 1.609375 -0.390625 L 1.609375 0 L -0.046875 0 Z M 3.625 -2.296875 L 3 -4 L 2.59375 -5.078125 L 2.578125 -5.078125 L 2.203125 -4.078125 L 1.734375 -2.734375 L 1.578125 -2.296875 Z M 3.625 -2.296875 "/></g></g></g><g fill="#ffffff" fill-opacity="1"><g transform="translate(118.439232, 88.141197)"><g><path d="M 0.484375 -0.296875 C 0.691406 -0.296875 0.835938 -0.335938 0.921875 -0.421875 C 1.015625 -0.515625 1.066406 -0.625 1.078125 -0.75 C 1.085938 -0.875 1.09375 -1.085938 1.09375 -1.390625 L 1.09375 -5.21875 C 1.09375 -5.46875 1.101562 -5.679688 1.125 -5.859375 L 0.484375 -5.828125 L 0.484375 -6.21875 L 4.609375 -6.21875 L 4.65625 -4.65625 L 4.359375 -4.65625 C 4.359375 -5.144531 4.25 -5.476562 4.03125 -5.65625 C 3.8125 -5.832031 3.515625 -5.914062 3.140625 -5.90625 L 2.484375 -5.890625 C 2.273438 -5.878906 2.128906 -5.828125 2.046875 -5.734375 C 1.960938 -5.648438 1.910156 -5.546875 1.890625 -5.421875 C 1.878906 -5.296875 1.875 -5.085938 1.875 -4.796875 L 1.875 -3.265625 L 3.421875 -3.25 L 3.359375 -4.03125 L 3.75 -4.03125 L 3.75 -2.15625 L 3.46875 -2.15625 C 3.46875 -2.382812 3.441406 -2.550781 3.390625 -2.65625 C 3.335938 -2.769531 3.253906 -2.847656 3.140625 -2.890625 C 3.035156 -2.929688 2.890625 -2.953125 2.703125 -2.953125 C 2.578125 -2.953125 2.476562 -2.953125 2.40625 -2.953125 L 1.875 -2.921875 L 1.875 -1.0625 C 1.875 -0.738281 1.863281 -0.503906 1.84375 -0.359375 L 2.75 -0.390625 L 2.75 0 L 0.484375 0 Z M 0.484375 -0.296875 "/></g></g></g><g fill="#ffffff" fill-opacity="1"><g transform="translate(126.022906, 88.141197)"><g><path d="M 1.84375 -0.296875 C 2.101562 -0.304688 2.269531 -0.375 2.34375 -0.5 C 2.414062 -0.632812 2.453125 -0.835938 2.453125 -1.109375 L 2.453125 -5.890625 L 1.546875 -5.875 C 1.179688 -5.875 0.921875 -5.75 0.765625 -5.5 C 0.609375 -5.257812 0.53125 -4.875 0.53125 -4.34375 L 0.1875 -4.34375 L 0.25 -6.21875 L 5.421875 -6.21875 L 5.46875 -4.34375 L 5.140625 -4.34375 C 5.128906 -4.71875 5.085938 -5.015625 5.015625 -5.234375 C 4.953125 -5.453125 4.835938 -5.613281 4.671875 -5.71875 C 4.515625 -5.832031 4.285156 -5.890625 3.984375 -5.890625 L 3.234375 -5.890625 L 3.21875 -1.0625 C 3.21875 -0.738281 3.207031 -0.503906 3.1875 -0.359375 L 3.9375 -0.390625 L 3.9375 0 L 1.84375 0 Z M 1.84375 -0.296875 "/></g></g></g><g fill="#ffffff" fill-opacity="1"><g transform="translate(134.422599, 88.141197)"><g/></g></g><g fill="#ffffff" fill-opacity="1"><g transform="translate(139.478372, 88.141197)"><g><path d="M 0.484375 -0.296875 C 0.691406 -0.296875 0.835938 -0.335938 0.921875 -0.421875 C 1.015625 -0.515625 1.066406 -0.625 1.078125 -0.75 C 1.085938 -0.875 1.09375 -1.085938 1.09375 -1.390625 L 1.09375 -5.21875 C 1.09375 -5.46875 1.101562 -5.679688 1.125 -5.859375 L 0.484375 -5.828125 L 0.484375 -6.21875 L 4.609375 -6.21875 L 4.65625 -4.65625 L 4.359375 -4.65625 C 4.359375 -5.144531 4.25 -5.476562 4.03125 -5.65625 C 3.8125 -5.832031 3.515625 -5.914062 3.140625 -5.90625 L 2.484375 -5.890625 C 2.273438 -5.878906 2.128906 -5.828125 2.046875 -5.734375 C 1.960938 -5.648438 1.910156 -5.546875 1.890625 -5.421875 C 1.878906 -5.296875 1.875 -5.085938 1.875 -4.796875 L 1.875 -3.265625 L 3.421875 -3.25 L 3.359375 -4.03125 L 3.75 -4.03125 L 3.75 -2.15625 L 3.46875 -2.15625 C 3.46875 -2.382812 3.441406 -2.550781 3.390625 -2.65625 C 3.335938 -2.769531 3.253906 -2.847656 3.140625 -2.890625 C 3.035156 -2.929688 2.890625 -2.953125 2.703125 -2.953125 C 2.578125 -2.953125 2.476562 -2.953125 2.40625 -2.953125 L 1.875 -2.921875 L 1.875 -1.0625 C 1.875 -0.738281 1.863281 -0.503906 1.84375 -0.359375 L 2.75 -0.390625 L 2.75 0 L 0.484375 0 Z M 0.484375 -0.296875 "/></g></g></g><g fill="#ffffff" fill-opacity="1"><g transform="translate(147.062045, 88.141197)"><g><path d="M 3.375 0.140625 C 2.75 0.140625 2.253906 0.03125 1.890625 -0.1875 C 1.523438 -0.414062 1.265625 -0.757812 1.109375 -1.21875 C 0.953125 -1.675781 0.875 -2.28125 0.875 -3.03125 L 0.875 -4.828125 C 0.875 -5.203125 0.890625 -5.546875 0.921875 -5.859375 L 0.28125 -5.828125 L 0.28125 -6.21875 L 2.265625 -6.21875 L 2.265625 -5.921875 C 2.003906 -5.921875 1.835938 -5.851562 1.765625 -5.71875 C 1.691406 -5.582031 1.65625 -5.414062 1.65625 -5.21875 L 1.65625 -2.984375 C 1.65625 -2.460938 1.703125 -2.015625 1.796875 -1.640625 C 1.890625 -1.265625 2.070312 -0.957031 2.34375 -0.71875 C 2.613281 -0.476562 3 -0.359375 3.5 -0.359375 C 4.113281 -0.359375 4.566406 -0.570312 4.859375 -1 C 5.160156 -1.425781 5.316406 -2 5.328125 -2.71875 L 5.359375 -5.21875 C 5.359375 -5.46875 5.367188 -5.679688 5.390625 -5.859375 L 4.75 -5.828125 L 4.75 -6.21875 L 6.40625 -6.21875 L 6.40625 -5.921875 C 6.195312 -5.910156 6.046875 -5.859375 5.953125 -5.765625 C 5.867188 -5.679688 5.816406 -5.578125 5.796875 -5.453125 C 5.785156 -5.335938 5.78125 -5.128906 5.78125 -4.828125 L 5.765625 -2.765625 C 5.765625 -1.910156 5.570312 -1.210938 5.1875 -0.671875 C 4.8125 -0.128906 4.207031 0.140625 3.375 0.140625 Z M 3.375 0.140625 "/></g></g></g><g fill="#ffffff" fill-opacity="1"><g transform="translate(156.455158, 88.141197)"><g><path d="M 0.484375 -0.296875 C 0.691406 -0.296875 0.835938 -0.335938 0.921875 -0.421875 C 1.015625 -0.515625 1.066406 -0.625 1.078125 -0.75 C 1.085938 -0.875 1.09375 -1.085938 1.09375 -1.390625 L 1.09375 -5.21875 C 1.09375 -5.46875 1.101562 -5.679688 1.125 -5.859375 L 0.484375 -5.828125 L 0.484375 -6.21875 C 1.097656 -6.226562 1.5625 -6.234375 1.875 -6.234375 C 2.164062 -6.234375 2.378906 -6.226562 2.515625 -6.21875 C 3.347656 -6.207031 3.957031 -6.066406 4.34375 -5.796875 C 4.738281 -5.523438 4.9375 -5.132812 4.9375 -4.625 C 4.9375 -4.21875 4.8125 -3.851562 4.5625 -3.53125 C 4.320312 -3.207031 3.894531 -2.984375 3.28125 -2.859375 C 3.375 -2.785156 3.460938 -2.691406 3.546875 -2.578125 C 3.628906 -2.472656 3.742188 -2.304688 3.890625 -2.078125 L 4.484375 -1.140625 C 4.617188 -0.929688 4.726562 -0.769531 4.8125 -0.65625 C 4.894531 -0.550781 5 -0.460938 5.125 -0.390625 C 5.25 -0.328125 5.398438 -0.296875 5.578125 -0.296875 L 5.578125 0 L 4.453125 0 C 4.296875 -0.132812 4.160156 -0.273438 4.046875 -0.421875 C 3.941406 -0.566406 3.816406 -0.753906 3.671875 -0.984375 L 3.078125 -1.9375 L 2.953125 -2.125 C 2.859375 -2.28125 2.773438 -2.40625 2.703125 -2.5 C 2.628906 -2.601562 2.550781 -2.695312 2.46875 -2.78125 C 2.414062 -2.769531 2.335938 -2.765625 2.234375 -2.765625 C 2.066406 -2.765625 1.945312 -2.769531 1.875 -2.78125 L 1.875 -1.0625 C 1.875 -0.738281 1.863281 -0.503906 1.84375 -0.359375 L 2.484375 -0.390625 L 2.484375 0 L 0.484375 0 Z M 2.265625 -3.109375 C 3.472656 -3.109375 4.078125 -3.582031 4.078125 -4.53125 C 4.078125 -4.976562 3.945312 -5.316406 3.6875 -5.546875 C 3.425781 -5.773438 3.023438 -5.890625 2.484375 -5.890625 C 2.273438 -5.890625 2.125 -5.847656 2.03125 -5.765625 C 1.945312 -5.679688 1.898438 -5.578125 1.890625 -5.453125 C 1.878906 -5.335938 1.875 -5.128906 1.875 -4.828125 L 1.875 -3.125 C 2.050781 -3.113281 2.179688 -3.109375 2.265625 -3.109375 Z M 2.265625 -3.109375 "/></g></g></g><g fill="#ffffff" fill-opacity="1"><g transform="translate(164.748416, 88.141197)"><g><path d="M 1.484375 -5.03125 L 1.515625 -1.234375 C 1.515625 -0.835938 1.503906 -0.546875 1.484375 -0.359375 L 2.125 -0.390625 L 2.125 0 L 0.5 0 L 0.5 -0.296875 C 0.738281 -0.296875 0.894531 -0.363281 0.96875 -0.5 C 1.050781 -0.632812 1.09375 -0.800781 1.09375 -1 L 1.09375 -5.859375 L 0.5 -5.828125 L 0.5 -6.21875 L 1.5625 -6.21875 L 5.34375 -1.15625 L 5.359375 -5.21875 C 5.359375 -5.46875 5.367188 -5.679688 5.390625 -5.859375 L 4.75 -5.828125 L 4.75 -6.21875 L 6.375 -6.21875 L 6.375 -5.921875 C 6.195312 -5.910156 6.066406 -5.875 5.984375 -5.8125 C 5.898438 -5.75 5.84375 -5.664062 5.8125 -5.5625 C 5.789062 -5.457031 5.78125 -5.316406 5.78125 -5.140625 L 5.78125 -4.828125 L 5.765625 0.140625 L 5.34375 0.140625 Z M 1.484375 -5.03125 "/></g></g></g><g fill="#ffffff" fill-opacity="1"><g transform="translate(174.230228, 88.141197)"><g><path d="M 0.484375 -0.296875 C 0.691406 -0.296875 0.835938 -0.335938 0.921875 -0.421875 C 1.015625 -0.515625 1.066406 -0.625 1.078125 -0.75 C 1.085938 -0.875 1.09375 -1.085938 1.09375 -1.390625 L 1.09375 -5.21875 C 1.09375 -5.46875 1.101562 -5.679688 1.125 -5.859375 L 0.484375 -5.828125 L 0.484375 -6.21875 L 2.484375 -6.21875 L 2.484375 -5.921875 C 2.273438 -5.910156 2.125 -5.859375 2.03125 -5.765625 C 1.945312 -5.679688 1.898438 -5.578125 1.890625 -5.453125 C 1.878906 -5.335938 1.875 -5.128906 1.875 -4.828125 L 1.875 -1.0625 C 1.875 -0.738281 1.863281 -0.503906 1.84375 -0.359375 L 2.484375 -0.390625 L 2.484375 0 L 0.484375 0 Z M 0.484375 -0.296875 "/></g></g></g><g fill="#ffffff" fill-opacity="1"><g transform="translate(179.924639, 88.141197)"><g><path d="M 1.84375 -0.296875 C 2.101562 -0.304688 2.269531 -0.375 2.34375 -0.5 C 2.414062 -0.632812 2.453125 -0.835938 2.453125 -1.109375 L 2.453125 -5.890625 L 1.546875 -5.875 C 1.179688 -5.875 0.921875 -5.75 0.765625 -5.5 C 0.609375 -5.257812 0.53125 -4.875 0.53125 -4.34375 L 0.1875 -4.34375 L 0.25 -6.21875 L 5.421875 -6.21875 L 5.46875 -4.34375 L 5.140625 -4.34375 C 5.128906 -4.71875 5.085938 -5.015625 5.015625 -5.234375 C 4.953125 -5.453125 4.835938 -5.613281 4.671875 -5.71875 C 4.515625 -5.832031 4.285156 -5.890625 3.984375 -5.890625 L 3.234375 -5.890625 L 3.21875 -1.0625 C 3.21875 -0.738281 3.207031 -0.503906 3.1875 -0.359375 L 3.9375 -0.390625 L 3.9375 0 L 1.84375 0 Z M 1.84375 -0.296875 "/></g></g></g><g fill="#ffffff" fill-opacity="1"><g transform="translate(188.324338, 88.141197)"><g><path d="M 3.375 0.140625 C 2.75 0.140625 2.253906 0.03125 1.890625 -0.1875 C 1.523438 -0.414062 1.265625 -0.757812 1.109375 -1.21875 C 0.953125 -1.675781 0.875 -2.28125 0.875 -3.03125 L 0.875 -4.828125 C 0.875 -5.203125 0.890625 -5.546875 0.921875 -5.859375 L 0.28125 -5.828125 L 0.28125 -6.21875 L 2.265625 -6.21875 L 2.265625 -5.921875 C 2.003906 -5.921875 1.835938 -5.851562 1.765625 -5.71875 C 1.691406 -5.582031 1.65625 -5.414062 1.65625 -5.21875 L 1.65625 -2.984375 C 1.65625 -2.460938 1.703125 -2.015625 1.796875 -1.640625 C 1.890625 -1.265625 2.070312 -0.957031 2.34375 -0.71875 C 2.613281 -0.476562 3 -0.359375 3.5 -0.359375 C 4.113281 -0.359375 4.566406 -0.570312 4.859375 -1 C 5.160156 -1.425781 5.316406 -2 5.328125 -2.71875 L 5.359375 -5.21875 C 5.359375 -5.46875 5.367188 -5.679688 5.390625 -5.859375 L 4.75 -5.828125 L 4.75 -6.21875 L 6.40625 -6.21875 L 6.40625 -5.921875 C 6.195312 -5.910156 6.046875 -5.859375 5.953125 -5.765625 C 5.867188 -5.679688 5.816406 -5.578125 5.796875 -5.453125 C 5.785156 -5.335938 5.78125 -5.128906 5.78125 -4.828125 L 5.765625 -2.765625 C 5.765625 -1.910156 5.570312 -1.210938 5.1875 -0.671875 C 4.8125 -0.128906 4.207031 0.140625 3.375 0.140625 Z M 3.375 0.140625 "/></g></g></g><g fill="#ffffff" fill-opacity="1"><g transform="translate(197.717456, 88.141197)"><g><path d="M 0.484375 -0.296875 C 0.691406 -0.296875 0.835938 -0.335938 0.921875 -0.421875 C 1.015625 -0.515625 1.066406 -0.625 1.078125 -0.75 C 1.085938 -0.875 1.09375 -1.085938 1.09375 -1.390625 L 1.09375 -5.21875 C 1.09375 -5.46875 1.101562 -5.679688 1.125 -5.859375 L 0.484375 -5.828125 L 0.484375 -6.21875 C 1.097656 -6.226562 1.5625 -6.234375 1.875 -6.234375 C 2.164062 -6.234375 2.378906 -6.226562 2.515625 -6.21875 C 3.347656 -6.207031 3.957031 -6.066406 4.34375 -5.796875 C 4.738281 -5.523438 4.9375 -5.132812 4.9375 -4.625 C 4.9375 -4.21875 4.8125 -3.851562 4.5625 -3.53125 C 4.320312 -3.207031 3.894531 -2.984375 3.28125 -2.859375 C 3.375 -2.785156 3.460938 -2.691406 3.546875 -2.578125 C 3.628906 -2.472656 3.742188 -2.304688 3.890625 -2.078125 L 4.484375 -1.140625 C 4.617188 -0.929688 4.726562 -0.769531 4.8125 -0.65625 C 4.894531 -0.550781 5 -0.460938 5.125 -0.390625 C 5.25 -0.328125 5.398438 -0.296875 5.578125 -0.296875 L 5.578125 0 L 4.453125 0 C 4.296875 -0.132812 4.160156 -0.273438 4.046875 -0.421875 C 3.941406 -0.566406 3.816406 -0.753906 3.671875 -0.984375 L 3.078125 -1.9375 L 2.953125 -2.125 C 2.859375 -2.28125 2.773438 -2.40625 2.703125 -2.5 C 2.628906 -2.601562 2.550781 -2.695312 2.46875 -2.78125 C 2.414062 -2.769531 2.335938 -2.765625 2.234375 -2.765625 C 2.066406 -2.765625 1.945312 -2.769531 1.875 -2.78125 L 1.875 -1.0625 C 1.875 -0.738281 1.863281 -0.503906 1.84375 -0.359375 L 2.484375 -0.390625 L 2.484375 0 L 0.484375 0 Z M 2.265625 -3.109375 C 3.472656 -3.109375 4.078125 -3.582031 4.078125 -4.53125 C 4.078125 -4.976562 3.945312 -5.316406 3.6875 -5.546875 C 3.425781 -5.773438 3.023438 -5.890625 2.484375 -5.890625 C 2.273438 -5.890625 2.125 -5.847656 2.03125 -5.765625 C 1.945312 -5.679688 1.898438 -5.578125 1.890625 -5.453125 C 1.878906 -5.335938 1.875 -5.128906 1.875 -4.828125 L 1.875 -3.125 C 2.050781 -3.113281 2.179688 -3.109375 2.265625 -3.109375 Z M 2.265625 -3.109375 "/></g></g></g><g fill="#ffffff" fill-opacity="1"><g transform="translate(206.01072, 88.141197)"><g><path d="M 0.484375 -0.296875 C 0.691406 -0.296875 0.835938 -0.335938 0.921875 -0.421875 C 1.015625 -0.515625 1.066406 -0.625 1.078125 -0.75 C 1.085938 -0.875 1.09375 -1.085938 1.09375 -1.390625 L 1.09375 -5.21875 C 1.09375 -5.46875 1.101562 -5.679688 1.125 -5.859375 L 0.484375 -5.828125 L 0.484375 -6.21875 L 4.75 -6.21875 L 4.796875 -4.65625 L 4.515625 -4.65625 C 4.515625 -5.144531 4.40625 -5.476562 4.1875 -5.65625 C 3.976562 -5.832031 3.6875 -5.914062 3.3125 -5.90625 L 2.546875 -5.890625 C 2.335938 -5.878906 2.179688 -5.835938 2.078125 -5.765625 C 1.984375 -5.691406 1.925781 -5.585938 1.90625 -5.453125 C 1.882812 -5.316406 1.875 -5.109375 1.875 -4.828125 L 1.875 -3.40625 L 3.546875 -3.40625 L 3.484375 -4.15625 L 3.875 -4.15625 L 3.875 -2.296875 L 3.578125 -2.296875 C 3.578125 -2.515625 3.550781 -2.679688 3.5 -2.796875 C 3.445312 -2.910156 3.363281 -2.988281 3.25 -3.03125 C 3.144531 -3.070312 2.992188 -3.09375 2.796875 -3.09375 L 2.515625 -3.078125 L 1.875 -3.046875 L 1.875 -1.015625 C 1.875 -0.710938 1.863281 -0.484375 1.84375 -0.328125 L 3.546875 -0.359375 C 3.953125 -0.359375 4.265625 -0.457031 4.484375 -0.65625 C 4.703125 -0.863281 4.8125 -1.222656 4.8125 -1.734375 L 5.125 -1.734375 L 5.0625 0 L 0.484375 0 Z M 0.484375 -0.296875 "/></g></g></g></svg>